<svg width="71" height="20" viewBox="0 0 71 20" fill="none" xmlns="http://www.w3.org/2000/svg">
<path d="M0 18.9095V18.6395L0.567 18.4235C0.945 18.2795 1.179 18.1085 1.269 17.9105C1.377 17.6945 1.431 17.4065 1.431 17.0465V2.95252C1.431 2.59252 1.377 2.30452 1.269 2.08852C1.161 1.87252 0.927 1.70152 0.567 1.57552L0 1.35952V1.08952H6.885V1.35952L6.399 1.57552C6.057 1.70152 5.823 1.88152 5.697 2.11552C5.571 2.33152 5.508 2.61952 5.508 2.97952V18.3695H9.666C10.332 18.3695 10.818 18.2075 11.124 17.8835C11.448 17.5595 11.754 17.0915 12.042 16.4795L13.095 14.2115H13.365L13.122 18.9095H0Z" fill="#F7F4E9"/>
<path d="M23.4729 19.3955C22.3749 19.3955 21.3129 19.1975 20.2869 18.8015C19.2789 18.4055 18.3699 17.8205 17.5599 17.0465C16.7679 16.2545 16.1379 15.2735 15.6699 14.1035C15.2019 12.9335 14.9679 11.5655 14.9679 9.99952C14.9679 8.45152 15.2019 7.09252 15.6699 5.92252C16.1379 4.75252 16.7769 3.78052 17.5869 3.00652C18.3969 2.21452 19.3059 1.62052 20.3139 1.22452C21.3399 0.810516 22.3929 0.603516 23.4729 0.603516C24.5709 0.603516 25.6239 0.801516 26.6319 1.19752C27.6579 1.57552 28.5669 2.16052 29.3589 2.95252C30.1689 3.72652 30.8079 4.70752 31.2759 5.89552C31.7439 7.06552 31.9779 8.43352 31.9779 9.99952C31.9779 11.5295 31.7439 12.8885 31.2759 14.0765C30.8079 15.2465 30.1689 16.2275 29.3589 17.0195C28.5669 17.7935 27.6579 18.3875 26.6319 18.8015C25.6239 19.1975 24.5709 19.3955 23.4729 19.3955ZM23.4729 18.8285C24.4629 18.8285 25.2639 18.5675 25.8759 18.0455C26.4879 17.5055 26.9289 16.5965 27.1989 15.3185C27.4869 14.0225 27.6309 12.2495 27.6309 9.99952C27.6309 7.73152 27.4869 5.95852 27.1989 4.68052C26.9289 3.38452 26.4879 2.47552 25.8759 1.95352C25.2639 1.41352 24.4629 1.14352 23.4729 1.14352C22.5009 1.14352 21.7089 1.41352 21.0969 1.95352C20.4849 2.47552 20.0349 3.38452 19.7469 4.68052C19.4769 5.95852 19.3419 7.73152 19.3419 9.99952C19.3419 12.2495 19.4769 14.0225 19.7469 15.3185C20.0349 16.5965 20.4849 17.5055 21.0969 18.0455C21.7089 18.5675 22.5009 18.8285 23.4729 18.8285Z" fill="#F7F4E9"/>
<path d="M43.5757 19.3955C41.7397 19.3955 40.1197 19.0175 38.7157 18.2615C37.3297 17.4875 36.2407 16.3985 35.4487 14.9945C34.6747 13.5725 34.2877 11.8985 34.2877 9.97252C34.2877 8.10052 34.6747 6.46252 35.4487 5.05852C36.2227 3.65452 37.3387 2.56552 38.7967 1.79152C40.2727 0.999516 42.0547 0.603516 44.1427 0.603516C45.0967 0.603516 45.9787 0.711516 46.7887 0.927516C47.6167 1.14352 48.3997 1.45852 49.1377 1.87252L49.2457 5.65252H48.9757L47.4637 2.84452C47.2297 2.39452 47.0137 2.07052 46.8157 1.87252C46.6177 1.67452 46.3657 1.52152 46.0597 1.41352C45.7717 1.32352 45.5017 1.26052 45.2497 1.22452C45.0157 1.17052 44.7007 1.14352 44.3047 1.14352C43.1887 1.14352 42.1987 1.44052 41.3347 2.03452C40.4887 2.62852 39.8317 3.57352 39.3637 4.86952C38.8957 6.16552 38.6617 7.86652 38.6617 9.97252C38.6617 12.0605 38.8777 13.7615 39.3097 15.0755C39.7597 16.3895 40.3897 17.3525 41.1997 17.9645C42.0097 18.5585 42.9457 18.8555 44.0077 18.8555C44.1697 18.8555 44.3227 18.8465 44.4667 18.8285C44.6287 18.7925 44.7817 18.7565 44.9257 18.7205C45.2677 18.6665 45.4927 18.5225 45.6007 18.2885C45.7087 18.0545 45.7627 17.7755 45.7627 17.4515V12.1055C45.7627 11.4035 45.4027 10.9715 44.6827 10.8095L43.4407 10.4855V10.2155H51.0547V10.4855L50.6767 10.5935C49.9927 10.8095 49.6507 11.2595 49.6507 11.9435V17.8025C48.7147 18.3245 47.7607 18.7205 46.7887 18.9905C45.8347 19.2605 44.7637 19.3955 43.5757 19.3955Z" fill="#F7F4E9"/>
<path d="M61.5851 19.3955C60.4871 19.3955 59.4251 19.1975 58.3991 18.8015C57.3911 18.4055 56.4821 17.8205 55.6721 17.0465C54.8801 16.2545 54.2501 15.2735 53.7821 14.1035C53.3141 12.9335 53.0801 11.5655 53.0801 9.99952C53.0801 8.45152 53.3141 7.09252 53.7821 5.92252C54.2501 4.75252 54.8891 3.78052 55.6991 3.00652C56.5091 2.21452 57.4181 1.62052 58.4261 1.22452C59.4521 0.810516 60.5051 0.603516 61.5851 0.603516C62.6831 0.603516 63.7361 0.801516 64.7441 1.19752C65.7701 1.57552 66.6791 2.16052 67.4711 2.95252C68.2811 3.72652 68.9201 4.70752 69.3881 5.89552C69.8561 7.06552 70.0901 8.43352 70.0901 9.99952C70.0901 11.5295 69.8561 12.8885 69.3881 14.0765C68.9201 15.2465 68.2811 16.2275 67.4711 17.0195C66.6791 17.7935 65.7701 18.3875 64.7441 18.8015C63.7361 19.1975 62.6831 19.3955 61.5851 19.3955ZM61.5851 18.8285C62.5751 18.8285 63.3761 18.5675 63.9881 18.0455C64.6001 17.5055 65.0411 16.5965 65.3111 15.3185C65.5991 14.0225 65.7431 12.2495 65.7431 9.99952C65.7431 7.73152 65.5991 5.95852 65.3111 4.68052C65.0411 3.38452 64.6001 2.47552 63.9881 1.95352C63.3761 1.41352 62.5751 1.14352 61.5851 1.14352C60.6131 1.14352 59.8211 1.41352 59.2091 1.95352C58.5971 2.47552 58.1471 3.38452 57.8591 4.68052C57.5891 5.95852 57.4541 7.73152 57.4541 9.99952C57.4541 12.2495 57.5891 14.0225 57.8591 15.3185C58.1471 16.5965 58.5971 17.5055 59.2091 18.0455C59.8211 18.5675 60.6131 18.8285 61.5851 18.8285Z" fill="#F7F4E9"/>
</svg>
